<svg width="70" height="84" viewBox="0 0 70 84" fill="none" xmlns="http://www.w3.org/2000/svg">
<g opacity="0.3">
<path opacity="0.3" d="M48.8845 17.2358C46.971 17.2339 45.1364 16.4729 43.7834 15.1199C42.4303 13.7668 41.6694 11.9322 41.6675 10.0187V-0.00170898H9.4185C6.92056 -0.00170898 4.52493 0.990622 2.75862 2.75693C0.992304 4.52324 0 6.91882 0 9.41676V66.1937C0.00370943 68.6893 0.997652 71.0813 2.76356 72.8446C4.52947 74.6079 6.92298 75.5983 9.4185 75.5983H48.1285C49.3657 75.5987 50.5908 75.3555 51.7339 74.8824C52.877 74.4093 53.9157 73.7156 54.7907 72.8409C55.6656 71.9663 56.3597 70.9279 56.8332 69.7849C57.3068 68.642 57.5505 67.417 57.5505 66.1798V17.2218L48.8845 17.2358Z" fill="#00C650"/>
</g>
<path d="M57.5505 17.2358H48.8845C46.971 17.2339 45.1364 16.4729 43.7833 15.1199C42.4303 13.7668 41.6693 11.9322 41.6675 10.0188V-0.00170898L57.5505 17.2358Z" fill="#00C650"/>
<path d="M64.3791 59.7119H20.6151C17.5107 59.7119 14.9941 62.2285 14.9941 65.3329V78.3809C14.9941 81.4853 17.5107 84.0019 20.6151 84.0019H64.3791C67.4835 84.0019 70.0001 81.4853 70.0001 78.3809V65.3329C70.0001 62.2285 67.4835 59.7119 64.3791 59.7119Z" fill="#00C650"/>
<path d="M28.1713 74.5903V77.1278H25.5498V74.5903H28.1713Z" fill="white"/>
<path d="M37.5901 67.5973C38.4758 68.3142 39.0776 69.3229 39.2876 70.4429H36.6066C36.4278 69.9781 36.1115 69.5789 35.7001 69.2983C35.2672 69.0145 34.7581 68.8692 34.2406 68.8819C33.8994 68.8715 33.5604 68.9397 33.2497 69.081C32.939 69.2224 32.6649 69.4333 32.4486 69.6973C31.9676 70.3191 31.7255 71.0928 31.7661 71.8779C31.7252 72.6598 31.9675 73.4302 32.4486 74.0479C32.6658 74.3104 32.9402 74.5198 33.2508 74.6599C33.5614 74.8001 33.9 74.8672 34.2406 74.8563C34.7581 74.869 35.2672 74.7237 35.7001 74.4398C36.1114 74.165 36.4298 73.7721 36.6136 73.3128H39.2946C39.0801 74.4292 38.4791 75.4343 37.5971 76.1514C36.6507 76.8789 35.4787 77.2505 34.2861 77.2014C33.3468 77.222 32.4193 76.9885 31.6016 76.5258C30.8354 76.0828 30.2151 75.426 29.8166 74.6358C29.3852 73.7778 29.169 72.8276 29.1866 71.8674C29.1686 70.9059 29.3848 69.9545 29.8166 69.0953C30.2151 68.3051 30.8354 67.6483 31.6016 67.2054C32.4193 66.7426 33.3468 66.5093 34.2861 66.5299C35.4783 66.4889 36.6472 66.8665 37.5901 67.5973V67.5973Z" fill="white"/>
<path d="M47.8203 75.7034C47.5186 76.1848 47.0865 76.5707 46.5743 76.8164C45.9508 77.1082 45.2674 77.2497 44.5793 77.2293C43.5429 77.2713 42.5217 76.9699 41.6743 76.3719C41.3 76.0905 40.9938 75.7287 40.7781 75.3131C40.5624 74.8976 40.4429 74.4389 40.4283 73.9709H43.1268C43.1455 74.3235 43.2968 74.6561 43.5503 74.9019C43.801 75.1366 44.1345 75.2625 44.4778 75.2519C44.7592 75.2662 45.0352 75.1709 45.2478 74.9859C45.34 74.8947 45.4125 74.7854 45.4606 74.665C45.5088 74.5446 45.5317 74.4155 45.5278 74.2859C45.5311 74.1634 45.5098 74.0414 45.4654 73.9272C45.4209 73.813 45.3541 73.7089 45.2688 73.6209C45.0849 73.4342 44.8661 73.2855 44.6248 73.1834C44.3658 73.0679 44.0123 72.9313 43.5573 72.7738C43.0018 72.5911 42.4593 72.3713 41.9333 72.1159C41.501 71.8924 41.1298 71.5668 40.8518 71.1674C40.532 70.6828 40.3739 70.1093 40.4003 69.5293C40.386 68.9543 40.5511 68.3892 40.8728 67.9124C41.2035 67.4466 41.6582 67.0828 42.1853 66.8624C42.7951 66.6156 43.4491 66.4965 44.1068 66.5124C45.1011 66.4597 46.083 66.7528 46.8858 67.3418C47.2285 67.6196 47.509 67.9663 47.7091 68.3595C47.9093 68.7526 48.0247 69.1833 48.0478 69.6238H45.3073C45.2736 69.316 45.1409 69.0275 44.9293 68.8014C44.8198 68.6978 44.6906 68.6173 44.5492 68.565C44.4078 68.5126 44.2573 68.4895 44.1068 68.4969C43.8452 68.4835 43.588 68.5683 43.3858 68.7348C43.2912 68.8239 43.2176 68.933 43.1703 69.0541C43.1231 69.1752 43.1035 69.3052 43.1128 69.4348C43.1098 69.5508 43.1299 69.6663 43.172 69.7745C43.2141 69.8827 43.2772 69.9813 43.3578 70.0649C43.5313 70.2475 43.7411 70.3918 43.9738 70.4883C44.2188 70.5968 44.5758 70.7369 45.0238 70.9049C45.5895 71.0869 46.1406 71.3115 46.6723 71.5769C47.1083 71.8113 47.4835 72.1446 47.7678 72.5499C48.0923 73.0404 48.2529 73.6213 48.2263 74.2089C48.2289 74.7346 48.0885 75.2512 47.8203 75.7034V75.7034Z" fill="white"/>
<path d="M51.6041 66.6484L54.1696 74.5339L56.7351 66.6484H59.4476L55.8006 77.1275H52.5246L48.8916 66.6484H51.6041Z" fill="white"/>
<path d="M41.6117 52.7782H15.9391C13.7166 52.7782 11.9106 50.5662 11.9106 47.8432V29.2267C11.9106 26.5072 13.7166 24.2952 15.9391 24.2952H41.6117C43.8342 24.2952 45.6401 26.5072 45.6401 29.2267V47.8432C45.6401 50.5662 43.8342 52.7782 41.6117 52.7782ZM15.9391 26.8152C14.8541 26.8152 13.9686 27.8967 13.9686 29.2267V47.8432C13.9686 49.1732 14.8541 50.2547 15.9391 50.2547H41.6117C42.6967 50.2547 43.5787 49.1732 43.5787 47.8432V29.2267C43.5787 27.8967 42.6967 26.8152 41.6117 26.8152H15.9391Z" fill="#00C650"/>
<path d="M44.611 41.5679H12.9395V44.0914H44.611V41.5679Z" fill="#00C650"/>
<path d="M44.611 32.9158H12.9395V35.4393H44.611V32.9158Z" fill="#00C650"/>
<path d="M36.5015 25.5552H33.978V51.5147H36.5015V25.5552Z" fill="#00C650"/>
<path d="M23.5723 25.5552H21.0488V51.5147H23.5723V25.5552Z" fill="#00C650"/>
</svg>
