<svg width="70" height="84" viewBox="0 0 70 84" fill="none" xmlns="http://www.w3.org/2000/svg">
<g opacity="0.3">
<path opacity="0.3" d="M48.8821 17.2369C46.9687 17.235 45.1342 16.4741 43.7812 15.1211C42.4282 13.7681 41.6672 11.9336 41.6654 10.0202V0.000244791H9.42154C8.18446 -0.000214922 6.95937 0.243008 5.81632 0.716102C4.67327 1.1892 3.63462 1.88288 2.7597 2.75747C1.88479 3.63206 1.19074 4.67044 0.717225 5.81332C0.243706 6.9562 -8.54168e-08 8.18115 0 9.41824V66.1924C-8.54168e-08 67.4295 0.243706 68.6545 0.717225 69.7974C1.19074 70.9403 1.88479 71.9787 2.7597 72.8532C3.63462 73.7278 4.67327 74.4214 5.81632 74.8945C6.95937 75.3676 8.18446 75.6109 9.42154 75.6105H48.1296C50.6274 75.6105 53.0229 74.6182 54.7891 72.852C56.5554 71.0857 57.5476 68.6902 57.5476 66.1924V17.2369H48.8821Z" fill="#A140FF"/>
</g>
<path d="M57.5477 17.2369H48.8822C46.9688 17.235 45.1343 16.4741 43.7813 15.1211C42.4283 13.7681 41.6674 11.9336 41.6655 10.0202V0.000244141L57.5477 17.2369Z" fill="#A140FF"/>
<path d="M45.7077 29.3042H9.57554C9.22839 29.3042 8.89547 29.1663 8.65 28.9208C8.40452 28.6754 8.26661 28.3424 8.26661 27.9953C8.26615 27.8231 8.29968 27.6525 8.36525 27.4933C8.43083 27.3341 8.52717 27.1894 8.64876 27.0674C8.77035 26.9455 8.91477 26.8488 9.0738 26.7828C9.23284 26.7168 9.40335 26.6829 9.57554 26.6829H45.7077C46.0558 26.6829 46.3896 26.8211 46.6357 27.0673C46.8819 27.3134 47.0202 27.6472 47.0202 27.9953C47.0192 28.3428 46.8805 28.6757 46.6345 28.9211C46.3885 29.1665 46.0552 29.3042 45.7077 29.3042Z" fill="#A140FF"/>
<path d="M45.7077 37.1333H9.57554C9.22839 37.1333 8.89547 36.9954 8.65 36.7499C8.40452 36.5045 8.26661 36.1715 8.26661 35.8244C8.26615 35.6522 8.29968 35.4816 8.36525 35.3224C8.43083 35.1632 8.52717 35.0185 8.64876 34.8966C8.77035 34.7746 8.91477 34.6779 9.0738 34.6119C9.23284 34.5459 9.40335 34.512 9.57554 34.512H45.7077C46.0558 34.512 46.3896 34.6502 46.6357 34.8963C46.8819 35.1424 47.0202 35.4763 47.0202 35.8244C47.0192 36.1719 46.8805 36.5047 46.6345 36.7501C46.3885 36.9955 46.0552 37.1333 45.7077 37.1333Z" fill="#A140FF"/>
<path d="M45.7077 44.9627H9.57554C9.40335 44.9627 9.23284 44.9287 9.0738 44.8627C8.91477 44.7967 8.77035 44.7 8.64876 44.5781C8.52717 44.4562 8.43083 44.3114 8.36525 44.1522C8.29968 43.993 8.26615 43.8224 8.26661 43.6502C8.26661 43.3031 8.40452 42.9702 8.65 42.7247C8.89547 42.4792 9.22839 42.3413 9.57554 42.3413H45.7077C46.0552 42.3413 46.3885 42.4791 46.6345 42.7244C46.8805 42.9698 47.0192 43.3028 47.0202 43.6502C47.0202 43.9983 46.8819 44.3321 46.6357 44.5783C46.3896 44.8244 46.0558 44.9627 45.7077 44.9627Z" fill="#A140FF"/>
<path d="M31.4494 52.7918H9.57554C9.40335 52.7918 9.23284 52.7578 9.0738 52.6918C8.91477 52.6258 8.77035 52.529 8.64876 52.4071C8.52717 52.2852 8.43083 52.1405 8.36525 51.9813C8.29968 51.8221 8.26615 51.6515 8.26661 51.4793C8.26661 51.1322 8.40452 50.7992 8.65 50.5537C8.89547 50.3082 9.22839 50.1704 9.57554 50.1704H31.4494C31.7966 50.1704 32.1295 50.3082 32.375 50.5537C32.6205 50.7992 32.7584 51.1322 32.7584 51.4793C32.7588 51.6515 32.7253 51.8221 32.6597 51.9813C32.5942 52.1405 32.4978 52.2852 32.3762 52.4071C32.2546 52.529 32.1102 52.6258 31.9512 52.6918C31.7921 52.7578 31.6216 52.7918 31.4494 52.7918Z" fill="#A140FF"/>
<path d="M64.3791 59.7109H20.6173C17.5131 59.7109 14.9966 62.2274 14.9966 65.3317V78.379C14.9966 81.4832 17.5131 83.9997 20.6173 83.9997H64.3791C67.4833 83.9997 69.9998 81.4832 69.9998 78.379V65.3317C69.9998 62.2274 67.4833 59.7109 64.3791 59.7109Z" fill="#A140FF"/>
<path d="M21.4117 74.6797V77.2241H18.7764V74.6797H21.4117Z" fill="white"/>
<path d="M31.5404 74.6866C31.1013 75.4816 30.4395 76.1312 29.6365 76.5556C28.732 77.0181 27.7263 77.2479 26.7107 77.224H22.7349V66.7001H26.7107C27.7271 66.6754 28.734 66.9 29.6435 67.3545C30.4441 67.7701 31.104 68.413 31.5404 69.2024C31.9929 70.0425 32.2208 70.9853 32.2019 71.9393C32.2199 72.8966 31.9922 73.8424 31.5404 74.6866ZM28.8035 74.1581C29.088 73.8661 29.3085 73.518 29.4507 73.1359C29.5929 72.7538 29.6539 72.3463 29.6295 71.9393C29.654 71.5329 29.5932 71.1257 29.4509 70.7442C29.3087 70.3627 29.0881 70.0151 28.8035 69.7239C28.1659 69.1648 27.3331 68.8805 26.4867 68.9329H25.2827V74.9456H26.4867C27.3324 74.9975 28.1646 74.7146 28.8035 74.1581Z" fill="white"/>
<path d="M41.3506 67.2285C42.1514 67.6833 42.8132 68.3475 43.265 69.1499C43.7386 69.9973 43.9801 70.9546 43.965 71.9253C43.9827 72.8984 43.7411 73.8587 43.265 74.7076C42.8141 75.5137 42.1507 76.1807 41.3471 76.636C40.529 77.1032 39.6014 77.3448 38.6592 77.336C37.7171 77.3448 36.7896 77.1032 35.9714 76.636C35.1678 76.1807 34.5044 75.5137 34.0535 74.7076C33.5774 73.8587 33.3358 72.8984 33.3535 71.9253C33.3353 70.9543 33.577 69.9961 34.0535 69.1499C34.5067 68.3474 35.1697 67.6832 35.9714 67.2285C36.7896 66.7613 37.7171 66.5197 38.6592 66.5286C39.6024 66.5203 40.531 66.7618 41.3506 67.2285ZM36.6609 69.7133C36.1446 70.3309 35.8819 71.1215 35.9259 71.9253C35.8818 72.7259 36.1446 73.5132 36.6609 74.1267C36.9123 74.4 37.2206 74.6149 37.564 74.7564C37.9075 74.8979 38.2777 74.9624 38.6487 74.9456C39.0186 74.9609 39.3873 74.8957 39.7294 74.7543C40.0715 74.6128 40.3786 74.3987 40.6296 74.1267C41.1484 73.5142 41.4138 72.7268 41.3716 71.9253C41.4136 71.1249 41.151 70.3384 40.6366 69.7239C40.3853 69.4503 40.077 69.2353 39.7336 69.0938C39.3901 68.9523 39.0198 68.8878 38.6487 68.9049C38.2786 68.8879 37.9093 68.9514 37.5661 69.091C37.2229 69.2305 36.914 69.4429 36.6609 69.7133Z" fill="white"/>
<path d="M53.5264 67.6517C54.414 68.3739 55.0177 69.3867 55.2308 70.511H52.5359C52.3541 70.045 52.0357 69.6449 51.6225 69.363C51.1869 69.0794 50.6757 68.9343 50.156 68.9466C49.8129 68.9356 49.4718 69.0037 49.1593 69.1458C48.8467 69.2878 48.5711 69.4999 48.3537 69.7656C47.8666 70.3891 47.6183 71.1661 47.6537 71.9565C47.6181 72.7437 47.8665 73.5175 48.3537 74.1369C48.5728 74.3998 48.8491 74.6093 49.1614 74.7494C49.4738 74.8895 49.8139 74.9565 50.156 74.9452C50.6759 74.9591 51.1875 74.8138 51.6225 74.5288C52.0334 74.2521 52.3517 73.8582 52.5359 73.3984H55.2308C55.0142 74.5194 54.411 75.5289 53.5264 76.2508C52.5744 76.9776 51.3983 77.349 50.2015 77.3007C49.2586 77.3206 48.3277 77.086 47.5067 76.6217C46.7383 76.1751 46.115 75.5165 45.7113 74.7248C45.2764 73.8566 45.059 72.8958 45.0778 71.9249C45.0591 70.9541 45.2765 69.9933 45.7113 69.1251C46.115 68.3334 46.7383 67.6748 47.5067 67.2282C48.3277 66.7639 49.2586 66.5293 50.2015 66.5492C51.4045 66.5173 52.5807 66.9074 53.5264 67.6517Z" fill="white"/>
<path d="M63.046 77.2236L60.8271 73.9478L58.9232 77.2236H56.0043L59.3712 71.8059L55.9028 66.6997H58.9232L61.0826 69.8705L62.941 66.6997H65.8458L62.5245 71.9984L66.0663 77.2236H63.046Z" fill="white"/>
</svg>
