<svg width="70" height="84" viewBox="0 0 70 84" fill="none" xmlns="http://www.w3.org/2000/svg">
<g opacity="0.3">
<path opacity="0.3" d="M48.8845 17.234C46.971 17.2321 45.1364 16.4712 43.7833 15.1181C42.4303 13.7651 41.6694 11.9305 41.6675 10.017V0H9.41847C6.92113 -1.72433e-07 4.52605 0.991828 2.75984 2.75738C0.993628 4.52294 0.000928032 6.91766 0 9.415V66.192C0.00278275 68.6881 0.996307 71.0811 2.76232 72.8451C4.52833 74.6091 6.92235 75.6 9.41847 75.6H48.1285C49.3657 75.6005 50.5908 75.3572 51.7339 74.8841C52.877 74.4109 53.9157 73.7173 54.7906 72.8426C55.6656 71.968 56.3597 70.9295 56.8332 69.7866C57.3068 68.6437 57.5505 67.4186 57.5505 66.1815V17.234H48.8845Z" fill="#005FAD"/>
</g>
<path d="M57.5504 17.234H48.8844C46.9709 17.2321 45.1363 16.4712 43.7833 15.1181C42.4302 13.7651 41.6693 11.9305 41.6675 10.017V0L57.5504 17.234Z" fill="#005FAD"/>
<path d="M64.3791 59.71H20.6151C17.5107 59.71 14.9941 62.2265 14.9941 65.3309V78.3789C14.9941 81.4833 17.5107 83.9999 20.6151 83.9999H64.3791C67.4835 83.9999 70.0001 81.4833 70.0001 78.3789V65.3309C70.0001 62.2265 67.4835 59.71 64.3791 59.71Z" fill="#005FAD"/>
<path d="M56.8021 74.9888C56.3639 75.7846 55.7019 76.4344 54.8981 76.8577C53.9937 77.3207 52.988 77.5505 51.9723 77.5262H48V67.0022H51.9723C52.9889 66.9749 53.9966 67.1998 54.9051 67.6567C55.7067 68.0709 56.367 68.7142 56.8021 69.5046C57.2577 70.3436 57.4869 71.2869 57.467 72.2415C57.486 73.1993 57.2569 74.1457 56.8021 74.9888ZM54.0652 74.4603C54.3497 74.1683 54.5701 73.8201 54.7123 73.4381C54.8546 73.056 54.9154 72.6484 54.8911 72.2415C54.9152 71.8345 54.8543 71.427 54.712 71.045C54.5698 70.6629 54.3495 70.3147 54.0652 70.0226C53.4262 69.4661 52.594 69.1832 51.7483 69.2351H50.5444V75.2478H51.7483C52.594 75.2997 53.4262 75.0168 54.0652 74.4603Z" fill="white"/>
<path d="M30.6355 75V77.5445H28V75H30.6355Z" fill="white"/>
<path d="M45.851 67V77.451H43.289V70.927L41.028 77.4615H38.823L36.548 70.913V77.4615H34V67.0105H37.1115L39.957 74.2905L42.7395 67.0105L45.851 67Z" fill="white"/>
<path d="M14.5739 39.9665C14.5701 39.8155 14.617 39.6677 14.707 39.5465C14.8132 39.4101 14.9409 39.2918 15.085 39.1965C15.3031 39.0828 15.5288 38.9846 15.7605 38.9025L16.436 38.6225L19.138 37.485C19.5136 37.31 20.2136 37.0183 21.238 36.61L22.5225 36.085L22.9845 35.9205L23.065 35.8855C23.0868 35.8805 23.1096 35.8805 23.1315 35.8855C23.1832 35.8622 23.2393 35.8503 23.296 35.8505C23.4044 35.8449 23.5128 35.8608 23.6149 35.8975C23.717 35.9341 23.8109 35.9907 23.891 36.064C23.9578 36.1285 24.0111 36.2057 24.0477 36.291C24.0844 36.3763 24.1037 36.4681 24.1045 36.561V37.45C24.1014 37.6155 24.0489 37.7763 23.954 37.912C23.8587 38.0649 23.7143 38.1809 23.5445 38.241L18.025 40.4985L23.5445 42.756C23.7084 42.823 23.8502 42.9345 23.954 43.078C24.0526 43.2077 24.1056 43.3665 24.1045 43.5295V44.4185C24.1024 44.608 24.0256 44.7891 23.891 44.9225C23.8123 44.9981 23.7188 45.0567 23.6164 45.0947C23.5141 45.1326 23.405 45.1491 23.296 45.143C23.2397 45.1427 23.184 45.132 23.1315 45.1115L22.9845 45.0625L22.5225 44.898L21.238 44.3695L19.138 43.498L16.436 42.3605L15.7605 42.0805C15.54 41.993 15.316 41.895 15.085 41.783C14.9412 41.7163 14.818 41.6123 14.7281 41.4818C14.6382 41.3513 14.5849 41.1991 14.5739 41.041V39.9665Z" fill="#005FAD"/>
<path d="M25.6271 46.0951C25.4089 46.1027 25.1957 46.0291 25.0286 45.8886C24.9542 45.831 24.8939 45.7573 24.8521 45.673C24.8102 45.5888 24.788 45.4962 24.7871 45.4021C24.7871 45.2691 25.1826 44.3521 25.9736 42.6021L27.1286 40.0646L27.3736 39.5361L29.2356 35.4026L29.8936 33.9711L30.0266 33.6421C30.0776 33.5207 30.1385 33.4036 30.2086 33.2921C30.301 33.1405 30.432 33.0162 30.5882 32.932C30.7444 32.8477 30.9202 32.8065 31.0976 32.8126H31.9201C32.1393 32.8051 32.3536 32.8786 32.5221 33.0191C32.5958 33.077 32.6555 33.1509 32.6967 33.2351C32.7379 33.3194 32.7596 33.4118 32.7601 33.5056C32.4799 34.3217 32.1503 35.12 31.7731 35.8961L31.5911 36.2916L30.1911 39.3541L28.3291 43.4876L27.6711 44.9226L27.5381 45.2516C27.491 45.3831 27.4312 45.5097 27.3596 45.6296C27.2604 45.7787 27.1256 45.9007 26.9673 45.9845C26.8089 46.0682 26.6322 46.1111 26.4531 46.1091L25.6271 46.0951Z" fill="#005FAD"/>
<path d="M34.2756 45.15C34.1644 45.157 34.0529 45.141 33.9482 45.1031C33.8434 45.0652 33.7476 45.0061 33.6666 44.9295C33.599 44.8641 33.5453 44.7858 33.5086 44.6992C33.4719 44.6126 33.4531 44.5195 33.4532 44.4255V43.5365C33.4516 43.3751 33.5005 43.2172 33.5931 43.085C33.6978 42.9381 33.8441 42.826 34.0131 42.763L39.5466 40.5055L34.0131 38.248C33.8446 38.1736 33.7012 38.052 33.6001 37.898C33.5072 37.7642 33.456 37.6059 33.4532 37.443V36.54C33.4533 36.4464 33.4729 36.3538 33.5108 36.2682C33.5488 36.1826 33.6043 36.1059 33.6736 36.043C33.8387 35.896 34.0548 35.8194 34.2756 35.8295C34.3279 35.8282 34.3798 35.8402 34.4262 35.8645C34.4563 35.8592 34.4871 35.8592 34.5172 35.8645L34.5907 35.8995C34.5662 35.8995 34.7167 35.9415 35.0352 36.064L36.3372 36.589C36.2695 36.5587 36.9695 36.8503 38.4372 37.464C39.2375 37.793 40.1544 38.1827 41.1881 38.633C41.2546 38.654 41.3421 38.689 41.4541 38.731L41.8321 38.8815C42.0538 38.9606 42.2682 39.0589 42.4727 39.1755C42.6201 39.2419 42.7461 39.3482 42.8364 39.4824C42.9267 39.6166 42.9777 39.7734 42.9837 39.935V41.02C42.9822 41.1691 42.9331 41.3138 42.8436 41.433C42.7467 41.5696 42.6199 41.6821 42.4727 41.762C42.2767 41.86 42.0387 41.965 41.7727 42.077L41.0727 42.357L34.9756 44.9085C34.8006 44.996 34.6956 45.052 34.6641 45.073L34.5977 45.122L34.2756 45.15Z" fill="#005FAD"/>
</svg>
