<svg width="70" height="84" viewBox="0 0 70 84" fill="none" xmlns="http://www.w3.org/2000/svg">
<g opacity="0.3">
<path opacity="0.3" d="M48.8845 17.2358C46.9707 17.2339 45.1357 16.4731 43.782 15.1202C42.4284 13.7672 41.6667 11.9326 41.6639 10.0188V-0.00170898H9.41847C6.92053 -0.00170898 4.52487 0.990622 2.75856 2.75693C0.992246 4.52324 0 6.91882 0 9.41676V66.1937C0 68.6917 0.992246 71.0873 2.75856 72.8537C4.52487 74.62 6.92053 75.6123 9.41847 75.6123H48.1285C50.6264 75.6123 53.022 74.62 54.7883 72.8537C56.5546 71.0873 57.547 68.6917 57.547 66.1937V17.2358H48.8845Z" fill="#0072FF"/>
</g>
<path d="M57.5466 17.2358H48.8841C46.9703 17.2339 45.1353 16.4731 43.7817 15.1202C42.4281 13.7672 41.6664 11.9326 41.6636 10.0188V-0.00170898L57.5466 17.2358Z" fill="#0072FF"/>
<path d="M45.7097 29.3039H9.57218C9.2253 29.3029 8.8929 29.1647 8.64762 28.9194C8.40233 28.6741 8.26411 28.3418 8.26318 27.9949C8.26318 27.6474 8.40095 27.314 8.64634 27.068C8.89172 26.822 9.22469 26.6833 9.57218 26.6824H45.7097C46.0572 26.6833 46.3901 26.822 46.6355 27.068C46.8809 27.314 47.0187 27.6474 47.0187 27.9949C47.0178 28.3418 46.8795 28.6741 46.6342 28.9194C46.389 29.1647 46.0566 29.3029 45.7097 29.3039Z" fill="#0072FF"/>
<path d="M45.7097 37.1335H9.57218C9.2253 37.1325 8.8929 36.9943 8.64762 36.749C8.40233 36.5037 8.26411 36.1713 8.26318 35.8245C8.26318 35.477 8.40095 35.1436 8.64634 34.8976C8.89172 34.6516 9.22469 34.5129 9.57218 34.512H45.7097C46.0572 34.5129 46.3901 34.6516 46.6355 34.8976C46.8809 35.1436 47.0187 35.477 47.0187 35.8245C47.0178 36.1713 46.8795 36.5037 46.6342 36.749C46.389 36.9943 46.0566 37.1325 45.7097 37.1335Z" fill="#0072FF"/>
<path d="M45.7097 44.9628H9.57218C9.22469 44.9619 8.89172 44.8232 8.64634 44.5772C8.40095 44.3311 8.26318 43.9978 8.26318 43.6503C8.26411 43.3034 8.40233 42.971 8.64762 42.7257C8.8929 42.4805 9.2253 42.3422 9.57218 42.3413H45.7097C46.0566 42.3422 46.389 42.4805 46.6342 42.7257C46.8795 42.971 47.0178 43.3034 47.0187 43.6503C47.0187 43.9978 46.8809 44.3311 46.6355 44.5772C46.3901 44.8232 46.0572 44.9619 45.7097 44.9628Z" fill="#0072FF"/>
<path d="M45.7097 52.7885H9.57218C9.22501 52.7885 8.89208 52.6506 8.64659 52.4051C8.40111 52.1596 8.26318 51.8267 8.26318 51.4795C8.26318 51.132 8.40095 50.7987 8.64634 50.5526C8.89172 50.3066 9.22469 50.1679 9.57218 50.167H45.7097C46.0572 50.1679 46.3901 50.3066 46.6355 50.5526C46.8809 50.7987 47.0187 51.132 47.0187 51.4795C47.0187 51.8267 46.8807 52.1596 46.6353 52.4051C46.3898 52.6506 46.0568 52.7885 45.7097 52.7885Z" fill="#0072FF"/>
<path d="M64.3792 59.7114H20.6152C17.5108 59.7114 14.9941 62.228 14.9941 65.3324V78.3804C14.9941 81.4848 17.5108 84.0014 20.6152 84.0014H64.3792C67.4836 84.0014 70.0002 81.4848 70.0002 78.3804V65.3324C70.0002 62.228 67.4836 59.7114 64.3792 59.7114Z" fill="#0072FF"/>
<path d="M29.9456 74.6812V77.2257H27.3101V74.6812H29.9456Z" fill="white"/>
<path d="M38.832 66.7012V68.7277H35.9725V77.2256H33.4141V68.7277H30.5825V66.7012H38.832Z" fill="white"/>
<path d="M46.2911 77.2256L44.0721 73.9497L42.1646 77.2256H39.2491L42.6126 71.8076L39.144 66.7012H42.1646L44.3241 69.8721L46.1861 66.7012H49.0876L45.7695 72.0001L49.3116 77.2256H46.2911Z" fill="white"/>
<path d="M57.8548 66.7012V68.7277H54.9989V77.2256H52.4368V68.7277H49.6089V66.7012H57.8548Z" fill="white"/>
</svg>
