<svg width="70" height="84" viewBox="0 0 70 84" fill="none" xmlns="http://www.w3.org/2000/svg">
<g opacity="0.3">
<path opacity="0.3" d="M48.8846 17.2358C46.9711 17.2339 45.1365 16.4729 43.7834 15.1199C42.4304 13.7668 41.6694 11.9322 41.6675 10.0188V-0.00170898H9.41855C6.92061 -0.00170898 4.52495 0.990622 2.75864 2.75693C0.992331 4.52324 0 6.91882 0 9.41676V66.1937C0 68.6917 0.992331 71.0873 2.75864 72.8537C4.52495 74.62 6.92061 75.6123 9.41855 75.6123H48.1285C50.6264 75.6123 53.0221 74.62 54.7884 72.8537C56.5547 71.0873 57.5471 68.6917 57.5471 66.1937V17.2358H48.8846Z" fill="#FF3E4C"/>
</g>
<path d="M57.547 17.2358H48.8845C46.971 17.2339 45.1364 16.4729 43.7834 15.1199C42.4303 13.7668 41.6693 11.9323 41.6675 10.0188V-0.00170898L57.547 17.2358Z" fill="#FF3E4C"/>
<path d="M64.3792 59.7119H20.6152C17.5108 59.7119 14.9941 62.2285 14.9941 65.3329V78.3809C14.9941 81.4853 17.5108 84.0019 20.6152 84.0019H64.3792C67.4836 84.0019 70.0001 81.4853 70.0001 78.3809V65.3329C70.0001 62.2285 67.4836 59.7119 64.3792 59.7119Z" fill="#FF3E4C"/>
<path d="M30.6355 75V77.5445H28V75H30.6355Z" fill="white"/>
<path d="M38.1435 77.5244L35.928 74.2485L34.0205 77.5244H31.105L34.4685 72.1064L31 67H34.0205L36.18 70.1709L38.042 67H40.9435L37.6255 72.299L41.1675 77.5244H38.1435Z" fill="white"/>
<path d="M56.4545 76.2326C56.1525 76.7159 55.7191 77.1032 55.205 77.3491C54.5793 77.6421 53.8937 77.7847 53.203 77.7655C52.161 77.8092 51.1342 77.5051 50.2841 76.9011C49.908 76.6188 49.6003 76.2555 49.384 75.838C49.1677 75.4205 49.0482 74.9596 49.0345 74.4896H51.7435C51.7629 74.8441 51.9139 75.1786 52.167 75.4276C52.419 75.6625 52.7536 75.7883 53.098 75.7776C53.2383 75.7858 53.3789 75.7662 53.5116 75.72C53.6444 75.6737 53.7667 75.6017 53.8716 75.5081C53.9649 75.4175 54.0383 75.3085 54.0871 75.188C54.136 75.0674 54.159 74.938 54.155 74.8081C54.1585 74.6847 54.137 74.5619 54.0919 74.447C54.0468 74.3322 53.979 74.2276 53.8925 74.1396C53.7072 73.9521 53.4874 73.8023 53.245 73.6986C52.9907 73.5866 52.6337 73.45 52.174 73.289C51.6162 73.1052 51.0714 72.8842 50.5431 72.6276C50.1089 72.4039 49.7363 72.077 49.458 71.6756C49.1351 71.1897 48.9757 70.6134 49.003 70.0306C48.9904 69.4531 49.1567 68.8858 49.479 68.4066C49.8101 67.9382 50.2679 67.574 50.7985 67.3566C51.4103 67.1078 52.0669 66.9886 52.7271 67.0066C53.7293 66.9513 54.7194 67.2471 55.5271 67.8431C55.8708 68.1227 56.1524 68.4711 56.3537 68.8658C56.555 69.2606 56.6715 69.6931 56.696 70.1355H53.9415C53.9109 69.8258 53.7778 69.5352 53.5635 69.3096C53.4541 69.2047 53.3244 69.1233 53.1823 69.0703C53.0403 69.0174 52.889 68.9939 52.7376 69.0015C52.4751 68.9896 52.2173 69.0744 52.013 69.2396C51.9188 69.329 51.8454 69.438 51.7982 69.559C51.751 69.68 51.7312 69.81 51.74 69.9396C51.7346 70.1749 51.8227 70.4026 51.985 70.573C52.1592 70.7549 52.3688 70.8991 52.601 70.9966C52.8495 71.1051 53.2065 71.2451 53.672 71.4131C54.2399 71.5981 54.7933 71.825 55.3275 72.0921C55.7639 72.3275 56.14 72.6605 56.4265 73.0651C56.7531 73.5587 56.9149 74.1432 56.8885 74.7346C56.8838 75.2642 56.7337 75.7824 56.4545 76.2326Z" fill="white"/>
<path d="M44.541 75.575H47.95V77.5244H42V67H44.548L44.541 75.575Z" fill="white"/>
<path d="M41.6115 52.7924H15.9495C13.727 52.7924 11.9175 50.5803 11.9175 47.8573V29.2409C11.9175 26.5214 13.727 24.3093 15.9495 24.3093H41.622C43.841 24.3093 45.6505 26.5214 45.6505 29.2409V47.8573C45.64 50.5803 43.8305 52.7924 41.6115 52.7924ZM15.9495 26.8293C14.861 26.8293 13.979 27.9109 13.979 29.2409V47.8573C13.979 49.1873 14.861 50.2688 15.9495 50.2688H41.622C42.707 50.2688 43.589 49.1873 43.589 47.8573V29.2409C43.589 27.9109 42.707 26.8293 41.622 26.8293H15.9495Z" fill="#FF3E4C"/>
<path d="M44.6109 41.582H12.9395V44.1055H44.6109V41.582Z" fill="#FF3E4C"/>
<path d="M44.6109 32.9299H12.9395V35.4534H44.6109V32.9299Z" fill="#FF3E4C"/>
<path d="M36.4981 25.5693H33.9746V51.5288H36.4981V25.5693Z" fill="#FF3E4C"/>
<path d="M23.5723 25.5693H21.0488V51.5288H23.5723V25.5693Z" fill="#FF3E4C"/>
</svg>
