<svg width="70" height="84" viewBox="0 0 70 84" fill="none" xmlns="http://www.w3.org/2000/svg">
<g opacity="0.3">
<path opacity="0.3" d="M48.8846 17.2358C46.9711 17.2339 45.1365 16.4729 43.7834 15.1199C42.4304 13.7668 41.6694 11.9322 41.6675 10.0188V-0.00170898H9.41855C6.92061 -0.00170898 4.52495 0.990622 2.75864 2.75693C0.992331 4.52324 0 6.91882 0 9.41676V66.1937C0 68.6917 0.992331 71.0873 2.75864 72.8537C4.52495 74.62 6.92061 75.6123 9.41855 75.6123H48.1285C50.6264 75.6123 53.0221 74.62 54.7884 72.8537C56.5547 71.0873 57.5471 68.6917 57.5471 66.1937V17.2358H48.8846Z" fill="#FF3E4C"/>
</g>
<path d="M57.547 17.2358H48.8845C46.971 17.2339 45.1364 16.4729 43.7834 15.1199C42.4303 13.7668 41.6693 11.9323 41.6675 10.0188V-0.00170898L57.547 17.2358Z" fill="#FF3E4C"/>
<path d="M64.3792 59.7119H20.6152C17.5108 59.7119 14.9941 62.2285 14.9941 65.3329V78.3809C14.9941 81.4853 17.5108 84.0019 20.6152 84.0019H64.3792C67.4836 84.0019 70.0001 81.4853 70.0001 78.3809V65.3329C70.0001 62.2285 67.4836 59.7119 64.3792 59.7119Z" fill="#FF3E4C"/>
<path d="M30.6008 74.6812V77.2257H27.9653V74.6812H30.6008Z" fill="white"/>
<path d="M38.3109 77.2256L36.0955 73.9497L34.188 77.2256H31.2725L34.6359 71.8076L31.1675 66.7012H34.188L36.3475 69.8721L38.2095 66.7012H41.1109L37.793 72.0001L41.335 77.2256H38.3109Z" fill="white"/>
<path d="M49.455 75.798C49.153 76.2813 48.7196 76.6686 48.2055 76.9145C47.5797 77.2075 46.8942 77.3501 46.2035 77.331C45.1615 77.3746 44.1347 77.0705 43.2845 76.4665C42.9085 76.1842 42.6008 75.8209 42.3845 75.4034C42.1682 74.9859 42.0487 74.525 42.035 74.055H44.744C44.7634 74.4095 44.9144 74.744 45.1675 74.993C45.4195 75.2279 45.7541 75.3538 46.0985 75.343C46.2388 75.3512 46.3794 75.3317 46.5121 75.2854C46.6449 75.2392 46.7672 75.1671 46.872 75.0735C46.9654 74.983 47.0388 74.8739 47.0876 74.7534C47.1365 74.6329 47.1595 74.5035 47.1555 74.3735C47.159 74.2501 47.1375 74.1273 47.0924 74.0125C47.0473 73.8976 46.9795 73.7931 46.893 73.705C46.7077 73.5175 46.4879 73.3677 46.2455 73.264C45.9912 73.152 45.6342 73.0155 45.1745 72.8545C44.6167 72.6706 44.0718 72.4496 43.5435 72.193C43.1094 71.9693 42.7368 71.6424 42.4585 71.241C42.1356 70.7551 41.9762 70.1788 42.0035 69.596C41.9909 69.0186 42.1572 68.4513 42.4795 67.972C42.8106 67.5037 43.2683 67.1395 43.799 66.922C44.4107 66.6732 45.0674 66.554 45.7275 66.572C46.7298 66.5167 47.7199 66.8126 48.5275 67.4085C48.8713 67.6882 49.1529 68.0365 49.3542 68.4313C49.5555 68.826 49.672 69.2585 49.6965 69.701H46.942C46.9113 69.3913 46.7783 69.1007 46.564 68.875C46.4546 68.7701 46.3248 68.6887 46.1828 68.6358C46.0408 68.5828 45.8894 68.5593 45.738 68.567C45.4756 68.555 45.2178 68.6398 45.0135 68.805C44.9193 68.8944 44.8459 69.0034 44.7987 69.1244C44.7515 69.2454 44.7317 69.3754 44.7405 69.505C44.7351 69.7403 44.8232 69.968 44.9855 70.1385C45.1596 70.3203 45.3693 70.4646 45.6015 70.562C45.85 70.6705 46.207 70.8105 46.6725 70.9785C47.2404 71.1635 47.7938 71.3905 48.328 71.6575C48.7644 71.8929 49.1404 72.2259 49.427 72.6305C49.7536 73.1242 49.9153 73.7087 49.889 74.3C49.8843 74.8297 49.7342 75.3479 49.455 75.798Z" fill="white"/>
<path d="M53.8408 75.2762H57.2498V77.2256H51.2998V66.7012H53.8478L53.8408 75.2762Z" fill="white"/>
<path d="M41.6115 52.7924H15.9495C13.727 52.7924 11.9175 50.5803 11.9175 47.8573V29.2409C11.9175 26.5214 13.727 24.3093 15.9495 24.3093H41.622C43.841 24.3093 45.6505 26.5214 45.6505 29.2409V47.8573C45.64 50.5803 43.8305 52.7924 41.6115 52.7924ZM15.9495 26.8293C14.861 26.8293 13.979 27.9109 13.979 29.2409V47.8573C13.979 49.1873 14.861 50.2688 15.9495 50.2688H41.622C42.707 50.2688 43.589 49.1873 43.589 47.8573V29.2409C43.589 27.9109 42.707 26.8293 41.622 26.8293H15.9495Z" fill="#FF3E4C"/>
<path d="M44.6109 41.582H12.9395V44.1055H44.6109V41.582Z" fill="#FF3E4C"/>
<path d="M44.6109 32.9299H12.9395V35.4534H44.6109V32.9299Z" fill="#FF3E4C"/>
<path d="M36.4981 25.5693H33.9746V51.5288H36.4981V25.5693Z" fill="#FF3E4C"/>
<path d="M23.5723 25.5693H21.0488V51.5288H23.5723V25.5693Z" fill="#FF3E4C"/>
</svg>
